<svg xmlns="http://www.w3.org/2000/svg" xmlns:xlink="http://www.w3.org/1999/xlink" width="100%" height="100%" fill-rule="evenodd" stroke-linecap="round" stroke-linejoin="round" stroke-miterlimit="1.5" clip-rule="evenodd" version="1.1" viewBox="0 0 60 60" xml:space="preserve"><g transform="matrix(1,0,0,1,-417,0)"><g id="collection" transform="matrix(1,0,0,1,-1274,0)"><rect width="60" height="60" x="1691" y="0" fill="none"/><g><g><path fill="none" stroke="#000" stroke-width="4" d="M673,7L652,7L652,10.91L668.201,11.013L668.243,32.903L673,32.903L673,7Z" transform="matrix(0.945433,0,0,0.945433,92.6601,2.16669) matrix(0.655113,0.00163422,-0.00192709,0.772517,1299.93,28.3878)"/></g><g><path fill="none" stroke="#000" stroke-width="4" d="M673,7L652,7L652,10.91L668.201,11.013L668.243,32.903L673,32.903L673,7Z" transform="matrix(0.945433,0,0,0.945433,92.6601,2.16669) matrix(0.655113,0.00163422,-0.00192709,0.772517,1303.38,25.2565)"/></g><g><path fill="none" stroke="#000" stroke-width="4" d="M673,7L652,7L652,32.903L673,32.903L673,7Z" transform="matrix(0.945433,0,0,0.945433,92.6601,2.16669) matrix(0.655113,0.00163422,-0.00192709,0.772517,1296.78,31.5145)"/></g></g><g><g><path fill="none" stroke="#000" stroke-width="4" d="M673,7L652,7L652,10.91L668.201,11.013L668.243,32.903L673,32.903L673,7Z" transform="matrix(0.945433,0,0,0.945433,66.6601,2.16669) matrix(0.655113,0.00163422,-0.00192709,0.772517,1299.93,28.3878)"/></g><g><path fill="none" stroke="#000" stroke-width="4" d="M673,7L652,7L652,10.91L668.201,11.013L668.243,32.903L673,32.903L673,7Z" transform="matrix(0.945433,0,0,0.945433,66.6601,2.16669) matrix(0.655113,0.00163422,-0.00192709,0.772517,1303.38,25.2565)"/></g><g><path fill="none" stroke="#000" stroke-width="4" d="M673,7L652,7L652,32.903L673,32.903L673,7Z" transform="matrix(0.945433,0,0,0.945433,66.6601,2.16669) matrix(0.655113,0.00163422,-0.00192709,0.772517,1296.78,31.5145)"/></g></g><g><g><path fill="none" stroke="#000" stroke-width="4" d="M673,7L652,7L652,10.91L668.201,11.013L668.243,32.903L673,32.903L673,7Z" transform="matrix(0.945433,0,0,0.945433,96.0696,-27.2686) matrix(0.655113,0.00163422,-0.00192709,0.772517,1299.93,28.3878)"/></g><g><path fill="none" stroke="#000" stroke-width="4" d="M673,7L652,7L652,10.91L668.201,11.013L668.243,32.903L673,32.903L673,7Z" transform="matrix(0.945433,0,0,0.945433,96.0696,-27.2686) matrix(0.655113,0.00163422,-0.00192709,0.772517,1303.38,25.2565)"/></g><g><path fill="none" stroke="#000" stroke-width="4" d="M673,7L652,7L652,32.903L673,32.903L673,7Z" transform="matrix(0.945433,0,0,0.945433,96.0696,-27.2686) matrix(0.655113,0.00163422,-0.00192709,0.772517,1296.78,31.5145)"/></g></g><g><g><path fill="none" stroke="#000" stroke-width="4" d="M673,7L652,7L652,10.91L668.201,11.013L668.243,32.903L673,32.903L673,7Z" transform="matrix(0.945433,0,0,0.945433,70.0475,-27.2686) matrix(0.655113,0.00163422,-0.00192709,0.772517,1299.93,28.3878)"/></g><g><path fill="none" stroke="#000" stroke-width="4" d="M673,7L652,7L652,10.91L668.201,11.013L668.243,32.903L673,32.903L673,7Z" transform="matrix(0.945433,0,0,0.945433,70.0475,-27.2686) matrix(0.655113,0.00163422,-0.00192709,0.772517,1303.38,25.2565)"/></g><g><path fill="none" stroke="#000" stroke-width="4" d="M673,7L652,7L652,32.903L673,32.903L673,7Z" transform="matrix(0.945433,0,0,0.945433,70.0475,-27.2686) matrix(0.655113,0.00163422,-0.00192709,0.772517,1296.78,31.5145)"/></g></g></g></g></svg>