<svg xmlns="http://www.w3.org/2000/svg" xmlns:xlink="http://www.w3.org/1999/xlink" width="100%" height="100%" fill-rule="evenodd" stroke-linecap="round" stroke-linejoin="round" stroke-miterlimit="1.5" clip-rule="evenodd" version="1.1" viewBox="0 0 60 60" xml:space="preserve"><g transform="matrix(1,0,0,1,-210,0)"><g id="deck" transform="matrix(1,0,0,1,-1481,0)"><rect width="60" height="60" x="1691" y="0" fill="none"/><g><path fill="none" stroke="#000" stroke-width="1.84" d="M673,7L652,7L652,10.91L668.201,11.013L668.243,32.903L673,32.903L673,7Z" transform="matrix(1.34654,0.00335904,-0.00396102,1.58786,829.019,-3.9058)"/></g><g><path fill="none" stroke="#000" stroke-width="1.84" d="M673,7L652,7L652,10.91L668.201,11.013L668.243,32.903L673,32.903L673,7Z" transform="matrix(1.34654,0.00335904,-0.00396102,1.58786,836.096,-10.342)"/></g><g><path fill="none" stroke="#000" stroke-width="1.84" d="M673,7L652,7L652,32.903L673,32.903L673,7Z" transform="matrix(1.34654,0.00335904,-0.00396102,1.58786,822.541,2.52091)"/></g></g></g></svg>