<svg xmlns="http://www.w3.org/2000/svg" xmlns:xlink="http://www.w3.org/1999/xlink" width="100%" height="100%" fill-rule="evenodd" stroke-linecap="round" stroke-linejoin="round" stroke-miterlimit="1.5" clip-rule="evenodd" version="1.1" viewBox="0 0 60 60" xml:space="preserve"><g transform="matrix(1,0,0,1,-280,0)"><g id="heart" transform="matrix(1,0,0,1,-1411,0)"><rect width="60" height="60" x="1691" y="0" fill="none"/><g><path fill="none" stroke="#000" stroke-width="2.82" d="M302,10.8C307.684,0 319.053,0 324.737,5.4C330.421,10.8 330.421,21.6 324.737,32.4C320.758,40.5 310.526,48.6 302,54C293.474,48.6 283.242,40.5 279.263,32.4C273.579,21.6 273.579,10.8 279.263,5.4C284.947,0 296.316,0 302,10.8Z" transform="matrix(0.960241,0,0,0.960241,1431.01,3.14701)"/></g></g></g></svg>